<svg id="_7816081241599780996" data-name="7816081241599780996" xmlns="http://www.w3.org/2000/svg" width="12.858" height="12.423" viewBox="0 0 12.858 12.423">
  <g id="Group_26" data-name="Group 26">
    <g id="Group_24" data-name="Group 24">
      <path id="Path_43" data-name="Path 43" d="M15.4,7.468A6.33,6.33,0,0,0,8.97,13.68,6.013,6.013,0,0,0,10,17.046L9.02,19.125A.528.528,0,0,0,9.1,19.7a.57.57,0,0,0,.427.19.578.578,0,0,0,.148-.019l2.691-.713a6.606,6.606,0,0,0,3.028.733,6.33,6.33,0,0,0,6.429-6.212A6.33,6.33,0,0,0,15.4,7.468Zm0,11.338a5.443,5.443,0,0,1-2.672-.7.579.579,0,0,0-.432-.055l-1.758.466.612-1.3a.527.527,0,0,0-.056-.542,4.973,4.973,0,0,1-1-3A5.225,5.225,0,0,1,15.4,8.553,5.225,5.225,0,0,1,20.7,13.68,5.225,5.225,0,0,1,15.4,18.807Z" transform="translate(-8.97 -7.468)" fill="#00fb73" fill-rule="evenodd"/>
    </g>
    <g id="Group_25" data-name="Group 25" transform="translate(3.035 3.028)">
      <path id="Path_44" data-name="Path 44" d="M141.8,145.692a1.191,1.191,0,0,0-1.015-.229c-.264.108-.432.521-.6.731a.253.253,0,0,1-.327.071,4.6,4.6,0,0,1-2.294-1.965.281.281,0,0,1,.036-.384,1.55,1.55,0,0,0,.417-.677,1.48,1.48,0,0,0-.186-.8,1.9,1.9,0,0,0-.591-.891.81.81,0,0,0-.88.131,1.787,1.787,0,0,0-.619,1.415,2.01,2.01,0,0,0,.056.449,3.718,3.718,0,0,0,.431.993,7.834,7.834,0,0,0,.45.684,6.942,6.942,0,0,0,1.951,1.811,5.9,5.9,0,0,0,1.216.578,2.7,2.7,0,0,0,1.416.224,1.714,1.714,0,0,0,1.284-.955.83.83,0,0,0,.06-.487C142.523,146.054,142.069,145.854,141.8,145.692Z" transform="translate(-135.734 -141.468)" fill="#00fb73" fill-rule="evenodd"/>
    </g>
  </g>
</svg>
