<?xml version="1.0" encoding="utf-8"?>
<!-- Generator: Adobe Illustrator 23.0.2, SVG Export Plug-In . SVG Version: 6.00 Build 0)  -->
<svg version="1.1" id="_9920775951556105709" xmlns="http://www.w3.org/2000/svg" xmlns:xlink="http://www.w3.org/1999/xlink"
	 x="0px" y="0px" viewBox="0 0 53.4 52.2" style="enable-background:new 0 0 53.4 52.2;" xml:space="preserve">
<style type="text/css">
	.st0{fill-rule:evenodd;clip-rule:evenodd;fill:#B2E2BA;}
	.st1{fill:#B2E2BA;}
</style>
<path id="Path_46" class="st0" d="M26.7,0C12,0,0,11.7,0,26.1s12,26.1,26.7,26.1s26.7-11.7,26.7-26.1S41.5,0,26.7,0z M20.8,12.3
	c1.5-0.1,2-0.1,5.9-0.1l0,0c3.9,0,4.4,0,5.9,0.1c1.2,0,2.4,0.2,3.5,0.6c0.9,0.3,1.8,0.9,2.5,1.6c0.7,0.7,1.3,1.5,1.6,2.5
	c0.4,1.1,0.6,2.2,0.7,3.4c0.1,1.5,0.1,2,0.1,5.7s0,4.3-0.1,5.7c0,1.2-0.2,2.3-0.7,3.4c-0.4,0.9-0.9,1.8-1.6,2.5
	c-0.7,0.7-1.6,1.3-2.5,1.6c-1.1,0.4-2.3,0.6-3.5,0.6c-1.5,0.1-2,0.1-5.9,0.1s-4.4,0-5.9-0.1c-1.2,0-2.3-0.2-3.5-0.6
	c-0.9-0.3-1.8-0.9-2.5-1.6c-0.7-0.7-1.3-1.5-1.6-2.5c-0.4-1.1-0.6-2.2-0.7-3.4c-0.1-1.5-0.1-2-0.1-5.7s0-4.3,0.1-5.7
	c0-1.2,0.2-2.3,0.7-3.4c0.4-0.9,0.9-1.8,1.6-2.5c0.7-0.7,1.6-1.3,2.5-1.6C18.5,12.5,19.7,12.3,20.8,12.3z"/>
<path id="Path_47" class="st0" d="M25.3,13.5h1.4c4.1,0,4.6,0,6.2,0.1c1,0,1.9,0.2,2.9,0.5c1.3,0.5,2.4,1.6,2.9,2.9
	c0.3,0.9,0.5,1.9,0.5,2.9c0.1,1.6,0.1,2.1,0.1,6.2s0,4.6-0.1,6.2c0,1-0.2,1.9-0.5,2.9c-0.5,1.3-1.6,2.4-2.9,2.9
	c-0.9,0.3-1.9,0.5-2.9,0.5c-1.6,0.1-2.1,0.1-6.2,0.1s-4.6,0-6.2-0.1c-1,0-1.9-0.2-2.9-0.5c-1.3-0.5-2.4-1.6-2.9-2.9
	c-0.3-0.9-0.5-1.9-0.5-2.9c-0.1-1.6-0.1-2.1-0.1-6.2s0-4.6,0.1-6.2c0-1,0.2-1.9,0.5-2.9c0.5-1.3,1.6-2.4,2.9-2.9
	c0.9-0.3,1.9-0.5,2.9-0.5C21.9,13.5,22.5,13.5,25.3,13.5L25.3,13.5z M34.9,16c-1,0-1.9,0.8-1.9,1.8s0.8,1.9,1.8,1.9
	c1,0,1.9-0.8,1.9-1.9c0,0,0,0,0,0C36.8,16.8,36,16,34.9,16z M18.8,26.1c0-4.4,3.5-7.9,7.9-7.9c4.4,0,7.9,3.5,7.9,7.9
	c0,4.4-3.5,7.9-7.9,7.9c0,0,0,0,0,0C22.3,34,18.8,30.5,18.8,26.1z"/>
<path id="Path_48" class="st1" d="M26.7,21c2.8,0,5.1,2.3,5.1,5.1s-2.3,5.1-5.1,5.1s-5.1-2.3-5.1-5.1C21.6,23.3,23.9,21,26.7,21z"/>
</svg>
