<svg id="Group_16" data-name="Group 16" xmlns="http://www.w3.org/2000/svg" width="64.773" height="58.002" viewBox="0 0 64.773 58.002">
  <path id="Path_24" data-name="Path 24" d="M9.691,17.7H70.416a2.2,2.2,0,0,0,2.024-2.349A2.2,2.2,0,0,0,70.416,13H9.691a2.2,2.2,0,0,0-2.024,2.349A2.2,2.2,0,0,0,9.691,17.7Z" transform="translate(-7.667 -13)" fill="#014934"/>
  <path id="Path_25" data-name="Path 25" d="M9.691,39.7H70.416a2.375,2.375,0,0,0,0-4.7H9.691a2.375,2.375,0,0,0,0,4.7Z" transform="translate(-7.667 18.303)" fill="#014934"/>
  <path id="Path_26" data-name="Path 26" d="M9.691,28.7H70.416a2.2,2.2,0,0,0,2.024-2.349A2.2,2.2,0,0,0,70.416,24H9.691a2.2,2.2,0,0,0-2.024,2.349A2.2,2.2,0,0,0,9.691,28.7Z" transform="translate(-7.667 2.652)" fill="#014934"/>
</svg>
