<?xml version="1.0" encoding="utf-8"?>
<!-- Generator: Adobe Illustrator 23.0.2, SVG Export Plug-In . SVG Version: 6.00 Build 0)  -->
<svg version="1.1" id="Page-1" xmlns="http://www.w3.org/2000/svg" xmlns:xlink="http://www.w3.org/1999/xlink" x="0px" y="0px"
	 viewBox="0 0 52.2 52.2" style="enable-background:new 0 0 52.2 52.2;" xml:space="preserve">
<style type="text/css">
	.st0{fill-rule:evenodd;clip-rule:evenodd;fill:#B2E2BA;stroke:#B2E2BA;stroke-miterlimit:10;}
</style>
<g id="Dribbble-Light-Preview" transform="translate(0)">
	<g id="icons">
		<path id="pinterest-_180_" class="st0" d="M25.8,0C11.4,0.1-0.1,11.9,0,26.3c0.1,10.2,6.1,19.3,15.4,23.5c0-4.9,0-4.3,3.7-20.1
			c-2-4.1-0.5-10.9,4.1-10.9c6.3,0,2,9.4,1.3,13.1c-0.5,2.2,0.8,4.4,3,4.9c0.4,0.1,0.8,0.1,1.1,0.1c5,0,8.2-6.3,8.2-13.8
			c0-5.7-3.9-9.8-10.6-9.8c-11.9,0-15,13.3-10.8,17.5c1,1.6,0,1.6,0,3.7c-0.7,2.2-6.5-1-6.5-9.2c0-7.4,6.1-16.2,18.4-16.2
			c9.7,0,16.2,7.2,16.2,14.8c0,10.3-5.6,17.7-13.9,17.7c-2.8,0-5.4-1.5-6.3-3.3c-1.6,6.1-1.9,9.2-4.3,12.7c2.4,0.7,4.9,1.1,7.4,1.1
			c14.2,0,25.8-11.6,25.8-25.8c0-0.1,0-0.1,0-0.2C51.5,11.6,40.1,0,25.8,0"/>
	</g>
</g>
</svg>
