<svg id="Component_7_1" data-name="Component 7 – 1" xmlns="http://www.w3.org/2000/svg" width="60.717" height="67.334" viewBox="0 0 60.717 67.334">
  <path id="Path_34" data-name="Path 34" d="M104.933,116.2a2.182,2.182,0,0,0,2.167,1.957,2.218,2.218,0,0,0,.227-.012,2.181,2.181,0,0,0,1.945-2.394l-1.006-9.734a2.181,2.181,0,0,0-4.339.448Z" transform="translate(-77.002 -73.796)" fill="#014934"/>
  <path id="Path_35" data-name="Path 35" d="M149.578,118.144a2.21,2.21,0,0,0,.227.012,2.182,2.182,0,0,0,2.167-1.957l1.006-9.734a2.181,2.181,0,0,0-4.34-.448l-1.006,9.734A2.181,2.181,0,0,0,149.578,118.144Z" transform="translate(-107.996 -73.796)" fill="#014934"/>
  <path id="Path_36" data-name="Path 36" d="M79.815,185.088a6.753,6.753,0,1,0,6.752,6.752A6.759,6.759,0,0,0,79.815,185.088Zm0,9.142a2.39,2.39,0,1,1,2.389-2.391A2.393,2.393,0,0,1,79.815,194.23Z" transform="translate(-55.122 -131.259)" fill="#014934"/>
  <path id="Path_37" data-name="Path 37" d="M157.255,185.088a6.753,6.753,0,1,0,6.753,6.752A6.76,6.76,0,0,0,157.255,185.088Zm0,9.142a2.39,2.39,0,1,1,2.39-2.391A2.393,2.393,0,0,1,157.255,194.23Z" transform="translate(-110.04 -131.259)" fill="#014934"/>
  <path id="Path_38" data-name="Path 38" d="M71.638,55.914a2.181,2.181,0,0,0-1.726-.847H26.434l-1.826-7.021A2.182,2.182,0,0,0,22.5,46.414h-8.94a2.181,2.181,0,1,0,0,4.362h7.253l1.811,6.964c.009.039.019.078.03.116l6.735,25.9A2.182,2.182,0,0,0,31.5,85.386H63.162a2.181,2.181,0,0,0,2.111-1.632L72.023,57.8A2.182,2.182,0,0,0,71.638,55.914ZM61.475,81.024H33.184L27.569,59.43H67.091Z" transform="translate(-11.376 -32.915)" fill="#014934"/>
  <path id="Path_39" data-name="Path 39" d="M87.27,27.05a2.181,2.181,0,0,0,3.084-3.086l-6.86-6.857a2.181,2.181,0,1,0-3.084,3.085Z" transform="translate(-59.879 -11.68)" fill="#014934"/>
  <path id="Path_40" data-name="Path 40" d="M153.856,27.691a2.175,2.175,0,0,0,1.543-.64l6.85-6.856a2.181,2.181,0,1,0-3.086-3.083l-6.85,6.856a2.181,2.181,0,0,0,1.543,3.723Z" transform="translate(-110.871 -11.682)" fill="#014934"/>
  <path id="Path_41" data-name="Path 41" d="M129.689,14.05h0a2.181,2.181,0,0,0,2.181-2.181l0-9.688A2.181,2.181,0,0,0,129.692,0h0a2.181,2.181,0,0,0-2.182,2.181l0,9.688A2.181,2.181,0,0,0,129.689,14.05Z" transform="translate(-93.733)" fill="#014934"/>
</svg>
